<?xml version="1.0" encoding="utf-8"?>
<!-- Svg Vector Icons : http://www.onlinewebfonts.com/icon -->
<!DOCTYPE svg PUBLIC "-//W3C//DTD SVG 1.1//EN" "http://www.w3.org/Graphics/SVG/1.1/DTD/svg11.dtd">
<svg version="1.1" xmlns="http://www.w3.org/2000/svg" xmlns:xlink="http://www.w3.org/1999/xlink" x="0px" y="0px" viewBox="0 0 1000 1000" enable-background="new 0 0 1000 1000" xml:space="preserve">
<metadata> Svg Vector Icons : http://www.onlinewebfonts.com/icon </metadata>
<g><path d="M500,990C229.4,990,10,770.6,10,500C10,229.4,229.4,10,500,10c270.6,0,490,219.4,490,490C990,770.6,770.6,990,500,990z M500,71.3c-236.8,0-428.8,192-428.8,428.8c0,236.8,191.9,428.8,428.8,428.8c236.8,0,428.8-191.9,428.8-428.8C928.8,263.3,736.8,71.3,500,71.3z M867.5,500c0,16.9-13.7,30.7-30.7,30.7l0,0H586.2c-12.7,35.6-46.3,61.2-86.2,61.2c-50.8,0-91.8-41.1-91.8-91.8c0-39.9,25.6-73.6,61.3-86.2V163.2l0,0c-0.1-16.9,13.7-30.7,30.6-30.7c16.9,0,30.7,13.7,30.7,30.7l0,0v250.7c26,9.2,46.3,29.5,55.6,55.5h250.6l0,0C853.8,469.3,867.5,483.1,867.5,500z M500,469.3c-16.9,0-30.7,13.8-30.7,30.7c0,16.9,13.7,30.7,30.7,30.7s30.7-13.7,30.7-30.7C530.7,483.1,516.9,469.3,500,469.3z M715.6,285.7c-11.9-12-11.9-31.4,0-43.3c12-12,31.4-12,43.3,0c12,12,12,31.4,0,43.3C747,297.6,727.6,297.6,715.6,285.7z M240,283.8c-12-12-12-31.4,0-43.3s31.4-12,43.3,0s12,31.4,0,43.3C271.4,295.7,252,295.7,240,283.8z M283.1,715.7c12,11.9,12,31.3,0,43.3c-12,12-31.4,12-43.3,0c-12-12-12-31.4,0-43.3C251.8,703.7,271.1,703.7,283.1,715.7z M500,806.3c16.9,0,30.7,13.7,30.7,30.7c0,16.9-13.7,30.7-30.7,30.7s-30.7-13.7-30.7-30.7C469.3,820,483.1,806.3,500,806.3z M759.6,716.7c12,12,12,31.4,0,43.3c-11.9,12-31.3,12-43.3,0c-12-11.9-12-31.3,0-43.3C728.3,704.7,747.7,704.7,759.6,716.7z M163.2,530.7c-16.9,0-30.7-13.7-30.7-30.7c0-16.9,13.7-30.7,30.7-30.7c16.9,0,30.6,13.8,30.6,30.7C193.8,516.9,180,530.7,163.2,530.7z"/></g>
</svg>