<?xml version="1.0" encoding="utf-8"?>
<!-- Generator: Adobe Illustrator 23.1.0, SVG Export Plug-In . SVG Version: 6.00 Build 0)  -->
<svg version="1.1" id="Layer_1" xmlns="http://www.w3.org/2000/svg" xmlns:xlink="http://www.w3.org/1999/xlink" x="0px" y="0px"
	 viewBox="0 0 1200 1200" style="enable-background:new 0 0 1200 1200;" xml:space="preserve">
<style type="text/css">
	.st0{fill:none;stroke:#FF5722;stroke-width:72;stroke-miterlimit:10;}
	.st1{fill:#FF5722;}
</style>
<image style="display:none;overflow:visible;" width="981" height="981" xlink:href="../../../../../../Downloads/NicePng_cancel-sign-png_1242260.png"  transform="matrix(1 0 0 1 110 109)">
</image>
<circle class="st0" cx="600" cy="600" r="491"/>
<path class="st1" d="M750,794.2L408.8,453c-7-7-7-18.5,0-25.6l18.9-18.9c7-7,18.5-7,25.6,0l341.2,341.2c7,7,7,18.5,0,25.6
	l-18.9,18.9C768.5,801.2,757,801.2,750,794.2z"/>
<path class="st1" d="M789.8,448.8L448.6,790c-7,7-18.5,7-25.6,0l-16-16c-7-7-7-18.5,0-25.6l341.2-341.2c7-7,18.5-7,25.6,0l16,16
	C796.8,430.3,796.8,441.8,789.8,448.8z"/>
</svg>
