<svg width="44" height="44" viewBox="0 0 44 44" fill="none" xmlns="http://www.w3.org/2000/svg">
<path d="M12.565 0.47783C12.118 0.58739 11.6965 0.899351 11.4606 1.31251C11.2415 1.67507 11.2244 1.79299 11.1993 2.82171L11.1654 3.94327H12.059H12.9527V3.05799V2.17271H27.371H41.7894V17.468V32.7716L38.3156 32.7972L34.8335 32.8222L34.3613 33.0585C33.8047 33.3282 33.2486 33.8932 32.9956 34.4498C32.8182 34.8291 32.8103 34.9642 32.7848 38.32L32.7597 41.8022H22.8518H12.9527V36.4056V31.0094H12.0674H11.1738L11.1993 36.6335L11.2244 42.266L11.4606 42.6624C11.6124 42.9238 11.8316 43.1429 12.0929 43.2947L12.4894 43.531L23.4929 43.556L34.4964 43.5728L39.0328 39.0364L43.56 34.5083L43.5433 18.1086L43.5182 1.70895L43.2819 1.31251C43.1301 1.05115 42.911 0.83203 42.6496 0.68023L42.2532 0.444388L27.54 0.427673C19.4453 0.427233 12.708 0.44439 12.565 0.47783Z" fill="#10375C"/>
<path d="M18.5345 4.12065C17.0927 4.31469 15.3727 4.88801 14.0993 5.60477C10.9203 7.37533 8.7199 10.3436 7.88522 13.9692C7.65774 14.9306 7.58162 17.1482 7.72506 18.2187C7.93582 19.7957 8.47526 21.4061 9.21754 22.6957L9.59683 23.3619L5.22059 27.7548C0.347146 32.645 0.448346 32.5103 0.439986 33.6231C0.431626 34.6769 0.920466 35.5204 1.83127 36.0259C2.24443 36.2539 2.35399 36.2789 3.08747 36.2789C3.76199 36.2789 3.94767 36.2451 4.26799 36.0765C4.52099 35.9498 6.08079 34.4494 9.00678 31.5318L13.3659 27.1894L14.3691 27.7038C15.4735 28.2771 16.7385 28.7241 17.9018 28.96C18.9473 29.1624 21.384 29.1624 22.4382 28.9516C26.418 28.1592 29.6221 25.7392 31.4182 22.1725C33.172 18.6649 33.172 14.4827 31.4098 10.9921C29.6137 7.44221 26.3929 5.00549 22.4805 4.23813C21.6207 4.07005 19.4031 4.00273 18.5345 4.12065ZM21.941 5.92509C25.8535 6.59961 29.1755 9.42441 30.4066 13.1173C30.8281 14.3991 30.9465 15.1581 30.9465 16.5911C30.9465 19.6012 29.9261 22.0718 27.8014 24.1882C26.3511 25.6384 24.7575 26.5576 22.8435 27.0636C21.8992 27.3166 21.7641 27.3333 20.2466 27.3333C18.4927 27.3417 17.9617 27.2576 16.5787 26.7767C13.0033 25.5117 10.3642 22.4682 9.57174 18.6737C9.31874 17.4764 9.31874 15.7059 9.57174 14.5082C10.2718 11.1862 12.4049 8.38689 15.3811 6.90277C16.0978 6.54021 17.4891 6.08481 18.3154 5.93301C19.2174 5.77329 21.0135 5.76493 21.941 5.92509Z" fill="#10375C"/>
<path d="M19.0238 7.78008C18.0963 8.04144 17.4218 8.62312 17.017 9.50004C16.8146 9.92156 16.7895 10.0901 16.764 11.1949C16.7385 12.3248 16.7217 12.426 16.5532 12.5607C16.3931 12.687 16.3675 12.7882 16.3763 13.3619C16.3763 14.087 16.6126 14.7532 17.0847 15.3432C17.2198 15.5118 17.4134 15.866 17.5146 16.119C17.6075 16.3803 17.8182 16.7851 17.9784 17.0298C18.2059 17.3584 18.2481 17.4768 18.1641 17.5358C17.8099 17.7632 15.803 18.8342 14.9767 19.2306C13.8635 19.7617 13.3914 20.1832 12.9615 21.0434L12.7001 21.5578L13.0037 21.9626C15.9465 25.8918 21.545 26.7098 25.4742 23.7838C26.2332 23.2188 27.0595 22.3674 27.5061 21.6929L27.8014 21.2458L27.6245 20.8916C27.287 20.2255 26.7392 19.7366 25.8623 19.3235C24.977 18.9103 22.7845 17.747 22.5403 17.5696C22.4052 17.4601 22.414 17.4262 22.6837 17.0302C22.8439 16.7939 23.0379 16.4146 23.1141 16.1955C23.2742 15.7401 23.2487 15.7907 23.7125 15.0911C24.328 14.172 24.5304 12.8484 24.0922 12.5532C23.932 12.452 23.9153 12.3592 23.9153 11.4149C23.9153 10.2428 23.7886 9.69496 23.3926 9.06268C23.0467 8.5228 22.5579 8.11844 21.9846 7.89888C21.351 7.65336 19.7067 7.5944 19.0238 7.78008Z" fill="#10375C"/>
<path d="M14.8077 31.8947V32.78H20.1621H25.516V31.8947V31.0095H20.1621H14.8077V31.8947Z" fill="#10375C"/>
<path d="M14.8077 35.478V36.321H20.1621H25.516V35.478V34.635H20.1621H14.8077V35.478Z" fill="#10375C"/>
<path d="M14.8077 39.0614V39.9467H20.1621H25.516V39.0614V38.1761H20.1621H14.8077V39.0614Z" fill="#10375C"/>
</svg>
